HIERARCHY
ROOT Hips
{
	OFFSET 0.000000 97.167313 0.000000
	CHANNELS 6 Xposition Yposition Zposition Xrotation Yrotation Zrotation
	JOINT Spine
	{
		OFFSET 0.000000 13.784798 0.064400
		CHANNELS 3 Xrotation Yrotation Zrotation
		JOINT Spine1
		{
			OFFSET 0.000000 12.037903 0.404700
			CHANNELS 3 Xrotation Yrotation Zrotation
			JOINT Spine2
			{
				OFFSET 0.000000 17.795601 0.420200
				CHANNELS 3 Xrotation Yrotation Zrotation
				JOINT Neck
				{
					OFFSET 0.000000 39.131302 11.954600
					CHANNELS 3 Xrotation Yrotation Zrotation
					JOINT Head
					{
						OFFSET 0.000000 14.456192 15.627699
						CHANNELS 3 Xrotation Yrotation Zrotation
						JOINT HeadTop_End
						{
							OFFSET 0.000000 15.703506 7.603401
							CHANNELS 3 Xrotation Yrotation Zrotation
							End Site
							{
								OFFSET 0.000000 17.447403 0.000000
							}
						}
					}
				}
				JOINT LeftShoulder
				{
					OFFSET 17.399500 24.608795 1.168800
					CHANNELS 3 Xrotation Yrotation Zrotation
					JOINT LeftArm
					{
						OFFSET 18.980635 5.765305 1.818600
						CHANNELS 3 Xrotation Yrotation Zrotation
						JOINT LeftForeArm
						{
							OFFSET 49.290169 0.000000 0.000000
							CHANNELS 3 Xrotation Yrotation Zrotation
							JOINT LeftHand
							{
								OFFSET 31.562012 0.000000 0.000000
								CHANNELS 3 Xrotation Yrotation Zrotation
								JOINT LeftHandThumb1
								{
									OFFSET 6.133995 -4.388519 7.076070
									CHANNELS 3 Xrotation Yrotation Zrotation
									JOINT LeftHandThumb2
									{
										OFFSET 6.037666 -3.485840 3.485847
										CHANNELS 3 Xrotation Yrotation Zrotation
										JOINT LeftHandThumb3
										{
											OFFSET 6.496506 -3.750763 3.750761
											CHANNELS 3 Xrotation Yrotation Zrotation
											JOINT LeftHandThumb4
											{
												OFFSET 5.616882 -3.242905 3.242910
												CHANNELS 3 Xrotation Yrotation Zrotation
												End Site
												{
													OFFSET -1.254608 7.132141 0.375429
												}
											}
										}
									}
								}
								JOINT LeftHandPinky1
								{
									OFFSET 18.920792 -0.453171 -11.426712
									CHANNELS 3 Xrotation Yrotation Zrotation
									JOINT LeftHandPinky2
									{
										OFFSET 4.919586 0.000000 0.000000
										CHANNELS 3 Xrotation Yrotation Zrotation
										JOINT LeftHandPinky3
										{
											OFFSET 5.233047 0.000000 0.000000
											CHANNELS 3 Xrotation Yrotation Zrotation
											JOINT LeftHandPinky4
											{
												OFFSET 5.571716 0.000000 0.000000
												CHANNELS 3 Xrotation Yrotation Zrotation
												End Site
												{
													OFFSET -3.459808 4.342407 -0.466164
												}
											}
										}
									}
								}
								JOINT LeftHandRing1
								{
									OFFSET 22.726120 -0.094986 -6.500475
									CHANNELS 3 Xrotation Yrotation Zrotation
									JOINT LeftHandRing2
									{
										OFFSET 6.408615 0.000000 0.000000
										CHANNELS 3 Xrotation Yrotation Zrotation
										JOINT LeftHandRing3
										{
											OFFSET 6.150223 0.000000 0.000000
											CHANNELS 3 Xrotation Yrotation Zrotation
											JOINT LeftHandRing4
											{
												OFFSET 6.145386 0.000000 0.000000
												CHANNELS 3 Xrotation Yrotation Zrotation
												End Site
												{
													OFFSET -3.671402 4.923981 -0.202372
												}
											}
										}
									}
								}
								JOINT LeftHandMiddle1
								{
									OFFSET 23.373947 0.000000 0.000001
									CHANNELS 3 Xrotation Yrotation Zrotation
									JOINT LeftHandMiddle2
									{
										OFFSET 6.996567 0.000000 0.000000
										CHANNELS 3 Xrotation Yrotation Zrotation
										JOINT LeftHandMiddle3
										{
											OFFSET 7.015945 0.000000 0.000000
											CHANNELS 3 Xrotation Yrotation Zrotation
											JOINT LeftHandMiddle4
											{
												OFFSET 7.721573 0.000000 0.000000
												CHANNELS 3 Xrotation Yrotation Zrotation
												End Site
												{
													OFFSET -4.651108 6.158463 0.251582
												}
											}
										}
									}
								}
								JOINT LeftHandIndex1
								{
									OFFSET 21.310577 -0.490082 6.209344
									CHANNELS 3 Xrotation Yrotation Zrotation
									JOINT LeftHandIndex2
									{
										OFFSET 7.536453 0.000000 0.000000
										CHANNELS 3 Xrotation Yrotation Zrotation
										JOINT LeftHandIndex3
										{
											OFFSET 7.512344 0.000000 0.000000
											CHANNELS 3 Xrotation Yrotation Zrotation
											JOINT LeftHandIndex4
											{
												OFFSET 10.212402 0.000000 0.000001
												CHANNELS 3 Xrotation Yrotation Zrotation
												End Site
												{
													OFFSET -5.180801 8.690506 1.388433
												}
											}
										}
									}
								}
							}
						}
					}
				}
				JOINT RightShoulder
				{
					OFFSET -17.399500 24.608795 1.168800
					CHANNELS 3 Xrotation Yrotation Zrotation
					JOINT RightArm
					{
						OFFSET -18.980635 5.765305 1.818600
						CHANNELS 3 Xrotation Yrotation Zrotation
						JOINT RightForeArm
						{
							OFFSET -49.290169 0.000000 0.000000
							CHANNELS 3 Xrotation Yrotation Zrotation
							JOINT RightHand
							{
								OFFSET -31.562012 0.000000 0.000000
								CHANNELS 3 Xrotation Yrotation Zrotation
								JOINT RightHandThumb1
								{
									OFFSET -6.133995 -4.388519 7.076070
									CHANNELS 3 Xrotation Yrotation Zrotation
									JOINT RightHandThumb2
									{
										OFFSET -6.037666 -3.485840 3.485847
										CHANNELS 3 Xrotation Yrotation Zrotation
										JOINT RightHandThumb3
										{
											OFFSET -6.496506 -3.750763 3.750761
											CHANNELS 3 Xrotation Yrotation Zrotation
											JOINT RightHandThumb4
											{
												OFFSET -5.616882 -3.242905 3.242910
												CHANNELS 3 Xrotation Yrotation Zrotation
												End Site
												{
													OFFSET 1.254608 7.132141 0.375429
												}
											}
										}
									}
								}
								JOINT RightHandIndex1
								{
									OFFSET -21.310577 -0.490082 6.209344
									CHANNELS 3 Xrotation Yrotation Zrotation
									JOINT RightHandIndex2
									{
										OFFSET -7.536453 0.000000 0.000000
										CHANNELS 3 Xrotation Yrotation Zrotation
										JOINT RightHandIndex3
										{
											OFFSET -7.512344 0.000000 0.000000
											CHANNELS 3 Xrotation Yrotation Zrotation
											JOINT RightHandIndex4
											{
												OFFSET -10.212402 0.000000 0.000001
												CHANNELS 3 Xrotation Yrotation Zrotation
												End Site
												{
													OFFSET 5.180801 8.690506 1.388433
												}
											}
										}
									}
								}
								JOINT RightHandMiddle1
								{
									OFFSET -23.373947 0.000000 0.000001
									CHANNELS 3 Xrotation Yrotation Zrotation
									JOINT RightHandMiddle2
									{
										OFFSET -6.996567 0.000000 0.000000
										CHANNELS 3 Xrotation Yrotation Zrotation
										JOINT RightHandMiddle3
										{
											OFFSET -7.015945 0.000000 0.000000
											CHANNELS 3 Xrotation Yrotation Zrotation
											JOINT RightHandMiddle4
											{
												OFFSET -7.721573 0.000000 0.000000
												CHANNELS 3 Xrotation Yrotation Zrotation
												End Site
												{
													OFFSET 4.651108 6.158463 0.251582
												}
											}
										}
									}
								}
								JOINT RightHandRing1
								{
									OFFSET -22.726120 -0.094986 -6.500475
									CHANNELS 3 Xrotation Yrotation Zrotation
									JOINT RightHandRing2
									{
										OFFSET -6.408615 0.000000 0.000000
										CHANNELS 3 Xrotation Yrotation Zrotation
										JOINT RightHandRing3
										{
											OFFSET -6.150223 0.000000 0.000000
											CHANNELS 3 Xrotation Yrotation Zrotation
											JOINT RightHandRing4
											{
												OFFSET -6.145386 0.000000 0.000000
												CHANNELS 3 Xrotation Yrotation Zrotation
												End Site
												{
													OFFSET 3.671402 4.923981 -0.202372
												}
											}
										}
									}
								}
								JOINT RightHandPinky1
								{
									OFFSET -18.920792 -0.453171 -11.426712
									CHANNELS 3 Xrotation Yrotation Zrotation
									JOINT RightHandPinky2
									{
										OFFSET -4.919586 0.000000 0.000000
										CHANNELS 3 Xrotation Yrotation Zrotation
										JOINT RightHandPinky3
										{
											OFFSET -5.233047 0.000000 0.000000
											CHANNELS 3 Xrotation Yrotation Zrotation
											JOINT RightHandPinky4
											{
												OFFSET -5.571716 0.000000 0.000000
												CHANNELS 3 Xrotation Yrotation Zrotation
												End Site
												{
													OFFSET 3.459808 4.342407 -0.466164
												}
											}
										}
									}
								}
							}
						}
					}
				}
			}
		}
	}
	JOINT LeftUpLeg
	{
		OFFSET 19.899099 -7.885101 -3.429500
		CHANNELS 3 Xrotation Yrotation Zrotation
		JOINT LeftLeg
		{
			OFFSET 1.745560 -36.997807 10.304700
			CHANNELS 3 Xrotation Yrotation Zrotation
			JOINT LeftFoot
			{
				OFFSET -1.745558 -29.803308 -13.615400
				CHANNELS 3 Xrotation Yrotation Zrotation
				JOINT LeftToeBase
				{
					OFFSET 1.181900 -18.539904 15.226099
					CHANNELS 3 Xrotation Yrotation Zrotation
					JOINT LeftToe_End
					{
						OFFSET -0.863701 1.402801 16.534700
						CHANNELS 3 Xrotation Yrotation Zrotation
						End Site
						{
							OFFSET 0.000000 16.616566 0.000000
						}
					}
				}
			}
		}
	}
	JOINT RightUpLeg
	{
		OFFSET -19.899099 -7.885101 -3.429500
		CHANNELS 3 Xrotation Yrotation Zrotation
		JOINT RightLeg
		{
			OFFSET -1.745560 -36.997807 10.304700
			CHANNELS 3 Xrotation Yrotation Zrotation
			JOINT RightFoot
			{
				OFFSET 1.745558 -29.803308 -13.615400
				CHANNELS 3 Xrotation Yrotation Zrotation
				JOINT RightToeBase
				{
					OFFSET -1.181900 -18.539904 15.226099
					CHANNELS 3 Xrotation Yrotation Zrotation
					JOINT RightToe_End
					{
						OFFSET 0.863701 1.402801 16.534700
						CHANNELS 3 Xrotation Yrotation Zrotation
						End Site
						{
							OFFSET 0.000000 16.616566 0.000000
						}
					}
				}
			}
		}
	}
}
MOTION
Frames: 4
Frame Time: 0.033333
2.419436 85.981186 3.642885 -11.090027 10.411989 -13.602324 17.944172 0.720660 9.739386 15.526927 0.371661 2.408902 24.994034 0.837125 2.293862 -18.037095 -0.344740 0.548075 -23.500106 -4.367047 -0.989292 0.000000 -0.000000 0.000000 3.581331 -7.259719 -10.594378 -15.029360 -32.118907 -51.309385 0.000004 -17.447954 -0.000003 -32.477720 -12.456988 5.694438 5.392179 -4.609213 5.048534 8.540441 32.108026 2.892664 -5.496671 12.978781 16.451791 0.000001 0.000001 0.000001 1.010226 18.751825 -18.764594 1.574001 3.996421 -42.980912 0.273507 1.770780 -17.558922 -0.000002 0.000000 -0.000002 1.713839 11.216068 -10.886568 1.429780 3.836191 -40.869472 0.699062 2.777158 -28.252685 -0.000001 -0.000000 0.000005 -0.006182 1.625240 -4.274666 1.156564 3.496279 -36.598793 0.090409 1.026338 -10.068127 -0.000000 -0.000000 0.000004 3.220032 -10.849310 -0.186677 0.893492 3.111518 -32.036398 0.311385 1.886272 -18.746175 -0.000001 0.000001 0.000001 3.132467 8.524566 16.688664 -25.472019 26.631898 44.405799 0.000006 15.290932 0.000015 -10.575554 10.237965 1.218139 4.487123 6.514298 -4.474637 8.626312 -33.972166 -3.460136 -3.952945 -19.045219 -17.504569 0.000001 -0.000001 0.000001 3.400356 10.942746 -0.810562 0.712600 -2.477760 32.085770 0.248443 -1.502232 18.779614 0.000000 0.000000 0.000004 -0.014905 -1.400266 3.559357 0.922279 -2.784012 36.651369 0.072136 -0.817420 10.087062 -0.000001 0.000001 -0.000004 1.582436 -10.874308 10.351150 1.139972 -3.054544 40.923772 0.557597 -2.211571 28.298500 0.000001 -0.000001 -0.000002 0.772709 -18.240177 18.353791 1.254858 -3.182055 43.035693 0.218217 -1.410274 17.590522 -0.000002 -0.000000 -0.000001 -31.736826 -7.051655 6.420379 65.274779 2.601764 6.879514 3.841298 -0.544973 -4.275816 -15.258921 -0.606431 2.731603 -0.000000 -0.000000 -0.000000 3.217154 0.711928 12.297164 22.685643 -8.306513 5.819229 -14.397100 -2.393309 0.006898 -5.665084 0.000001 0.000000 -0.000000 -0.000000 -0.000000 
2.779972 88.073730 8.652489 -10.629367 7.861351 -11.677365 17.584940 1.804178 7.231423 15.376866 0.541613 1.824754 24.847240 0.889837 1.684428 -17.650701 -0.149758 0.157556 -23.758571 -5.111819 -0.454527 -0.000001 -0.000000 -0.000000 3.646438 -6.929990 -9.749331 -13.248210 -29.809548 -52.279596 0.000008 -16.871276 -0.000011 -32.063633 -11.244811 4.173123 5.392178 -4.609212 5.048531 8.540440 32.108026 2.892668 -5.496669 12.978786 16.451790 -0.000001 -0.000003 -0.000001 1.010227 18.751825 -18.764592 1.574003 3.996427 -42.980912 0.273507 1.770779 -17.558921 -0.000003 0.000001 -0.000004 1.713839 11.216068 -10.886569 1.429780 3.836191 -40.869465 0.699062 2.777158 -28.252685 -0.000001 0.000001 0.000003 -0.006182 1.625243 -4.274666 1.156563 3.496279 -36.598793 0.090410 1.026338 -10.068130 -0.000000 0.000000 0.000004 3.220032 -10.849310 -0.186681 0.893491 3.111516 -32.036398 0.311389 1.886271 -18.746182 -0.000001 0.000001 0.000001 3.092478 9.505004 14.311207 -27.006501 28.382653 45.729985 -0.000006 15.906643 0.000034 -11.083350 11.079539 1.219015 4.487128 6.514298 -4.474636 8.626320 -33.972169 -3.460128 -3.952945 -19.045219 -17.504568 0.000003 -0.000001 -0.000000 3.400361 10.942742 -0.810562 0.712603 -2.477763 32.085766 0.248444 -1.502239 18.779612 0.000002 -0.000003 -0.000001 -0.014904 -1.400264 3.559360 0.922281 -2.784013 36.651362 0.072136 -0.817417 10.087060 -0.000003 0.000002 -0.000004 1.582434 -10.874309 10.351148 1.139971 -3.054545 40.923779 0.557600 -2.211569 28.298503 -0.000000 -0.000001 0.000002 0.772710 -18.240176 18.353792 1.254861 -3.182057 43.035690 0.218219 -1.410272 17.590522 -0.000001 -0.000003 0.000000 -33.493503 -6.098390 4.870992 54.110572 2.977681 6.658112 2.146051 0.068407 -4.244487 -2.440341 0.000002 -0.000001 -0.000000 0.000000 -0.000000 8.990674 0.626589 10.731376 17.009591 -5.959062 4.468642 -14.977922 -1.766350 -0.491608 -5.749881 0.000002 0.000001 -0.000000 -0.000000 -0.000000 
3.347412 89.748711 13.580256 -10.225977 4.595345 -10.173463 17.103557 3.108814 4.943892 15.305569 0.759615 1.207822 24.777891 0.982262 1.034253 -17.302988 0.199883 -0.302891 -23.887357 -5.447209 0.044278 -0.000000 0.000000 0.000000 3.866087 -6.172572 -9.137946 -11.786992 -27.405509 -52.920173 0.000004 -16.238611 -0.000010 -31.692593 -9.700265 2.580150 5.392177 -4.609211 5.048536 8.540441 32.108023 2.892666 -5.496671 12.978779 16.451790 0.000004 0.000000 0.000004 1.010224 18.751825 -18.764589 1.574002 3.996426 -42.980909 0.273503 1.770782 -17.558921 -0.000000 -0.000001 0.000001 1.713838 11.216069 -10.886560 1.429780 3.836192 -40.869465 0.699063 2.777158 -28.252685 -0.000001 -0.000000 0.000005 -0.006181 1.625241 -4.274657 1.156563 3.496280 -36.598797 0.090409 1.026339 -10.068123 0.000001 -0.000001 0.000008 3.220035 -10.849307 -0.186675 0.893489 3.111521 -32.036394 0.311390 1.886277 -18.746171 -0.000001 0.000000 -0.000002 3.155477 10.425438 11.655519 -28.298859 30.458013 47.292100 -0.000009 16.713036 -0.000006 -11.898401 12.119734 1.080125 4.487130 6.514296 -4.474637 8.626322 -33.972166 -3.460134 -3.952940 -19.045223 -17.504569 0.000005 0.000002 0.000006 3.400358 10.942743 -0.810557 0.712599 -2.477763 32.085773 0.248441 -1.502237 18.779607 -0.000001 -0.000002 0.000003 -0.014905 -1.400265 3.559362 0.922278 -2.784015 36.651365 0.072141 -0.817420 10.087062 -0.000001 -0.000001 -0.000007 1.582431 -10.874308 10.351150 1.139969 -3.054544 40.923779 0.557600 -2.211573 28.298509 -0.000002 -0.000002 -0.000003 0.772705 -18.240174 18.353786 1.254854 -3.182057 43.035693 0.218218 -1.410276 17.590524 -0.000001 -0.000002 0.000002 -34.125623 -5.212919 4.645954 42.964728 2.967736 6.651184 -0.834040 0.951976 -4.572080 -2.519391 -0.000000 -0.000001 0.000000 0.000000 -0.000000 13.978378 0.194852 8.976854 11.872791 -2.641068 2.981424 -14.796526 -1.411325 -0.400392 -6.360815 -0.000000 0.000000 -0.000001 -0.000000 -0.000000 
4.032003 90.361694 18.395176 -9.982700 0.814832 -9.144062 16.494068 4.831846 2.966362 15.351521 0.975300 0.564261 24.826191 1.066870 0.359908 -17.103395 0.703790 -0.825011 -23.779189 -5.336340 0.541100 0.000000 -0.000000 0.000000 4.252121 -4.916632 -9.052606 -10.501227 -25.171298 -52.906874 0.000002 -15.612233 -0.000011 -31.554644 -8.055836 1.146630 5.392179 -4.609212 5.048539 8.540440 32.108026 2.892667 -5.496674 12.978778 16.451790 -0.000001 0.000000 0.000006 1.010226 18.751827 -18.764587 1.574002 3.996424 -42.980909 0.273503 1.770784 -17.558926 -0.000000 0.000001 0.000001 1.713839 11.216069 -10.886564 1.429780 3.836189 -40.869465 0.699061 2.777158 -28.252683 -0.000000 -0.000002 0.000005 -0.006181 1.625241 -4.274657 1.156564 3.496277 -36.598793 0.090410 1.026338 -10.068125 0.000002 -0.000001 0.000004 3.220031 -10.849312 -0.186673 0.893491 3.111516 -32.036394 0.311388 1.886274 -18.746176 -0.000002 0.000001 0.000001 3.313118 11.187994 9.136453 -29.084967 32.990384 48.582862 0.000011 18.313723 -0.000004 -13.277540 12.840434 0.812533 4.487130 6.514300 -4.474637 8.626318 -33.972166 -3.460133 -3.952943 -19.045221 -17.504564 0.000003 -0.000002 -0.000001 3.400356 10.942743 -0.810552 0.712602 -2.477759 32.085770 0.248443 -1.502239 18.779612 -0.000004 0.000000 -0.000001 -0.014903 -1.400264 3.559359 0.922285 -2.784014 36.651362 0.072132 -0.817417 10.087060 0.000002 0.000002 -0.000008 1.582434 -10.874312 10.351148 1.139972 -3.054542 40.923775 0.557594 -2.211567 28.298502 -0.000001 -0.000000 -0.000005 0.772707 -18.240177 18.353789 1.254861 -3.182056 43.035693 0.218217 -1.410272 17.590526 -0.000001 -0.000001 0.000004 -35.044823 -4.449383 5.595612 34.639509 2.718251 6.905127 -5.811440 2.286533 -5.690023 -2.759121 -0.000002 -0.000002 -0.000000 0.000000 -0.000000 17.067130 -0.676905 7.128557 10.268840 1.595803 1.533598 -15.535465 -1.221855 0.055060 -7.771793 -0.000001 0.000001 -0.000000 0.000000 -0.000000 
